# xmcd
#
# Track frame offsets:
#	182
#	13132
#	27272
#	44632
#	53075
#	68620
#	82655
#	96405
#	106325
#	125927
#	140495
#	156890
#	168255
#	178417
#	194565
#	207057
#	222965
#	239095
#
# Disc length: 3352 seconds
#
# Revision: 1
# Processed by: cddbd v1.4PL0 Copyright (c) Steve Scherf et al.
# Submitted via: audiograbber 1.80.04
#
DISCID=0b0d1612
DTITLE=Nicoletta - Master Series
DYEAR=1900
DGENRE=
TTITLE0=Ma vie c'est un manege
TTITLE1=La solitude ça n'existe pas
TTITLE2=Mamy Blue
TTITLE3=Pour oublier qu'on s'est aime
TTITLE4=La musique (Angelica)
TTITLE5=Glory Alleluia
TTITLE6=Encore un jour sans toi
TTITLE7=L'homme à la moto
TTITLE8=quand on a que l'amour
TTITLE9=Il est mort le soleil
TTITLE10=Fio Maravilla
TTITLE11=Les volets clos
TTITLE12=La bande a Nico
TTITLE13=Broadway
TTITLE14=Ou es-tu passé mon Saint-Germain des Pres
TTITLE15=A quoi sert de vivre libre?
TTITLE16=Vivre pour l'amour
TTITLE17=Aïe, Aïe, Caramba
EXTD=
EXTT0=
EXTT1=
EXTT2=
EXTT3=
EXTT4=
EXTT5=
EXTT6=
EXTT7=
EXTT8=
EXTT9=
EXTT10=
EXTT11=
EXTT12=
EXTT13=
EXTT14=
EXTT15=
EXTT16=
EXTT17=
PLAYORDER=
